<svg width="36" height="36" viewBox="0 0 36 36" fill="none" xmlns="http://www.w3.org/2000/svg">
<path d="M14.0781 8.61935C14.3922 8.30769 14.8168 8.13281 15.2593 8.13281C15.7018 8.13281 16.1264 8.30769 16.4405 8.61935L24.6964 16.9008C25 17.2038 25.1749 17.6123 25.1845 18.0412C25.1942 18.47 25.0379 18.886 24.7483 19.2024L16.6138 27.3624C16.4595 27.5175 16.2762 27.6407 16.0743 27.725C15.8724 27.8093 15.6559 27.8529 15.4371 27.8535C15.2183 27.8541 15.0016 27.8116 14.7992 27.7284C14.5969 27.6453 14.4129 27.5231 14.2578 27.3688C14.1027 27.2145 13.9795 27.0312 13.8952 26.8293C13.8109 26.6274 13.7673 26.4109 13.7667 26.1921C13.7661 25.9733 13.8086 25.7566 13.8917 25.5542C13.9749 25.3519 14.0971 25.1679 14.2514 25.0128L21.1661 17.9943L14.0791 10.9758C13.9224 10.8222 13.7979 10.6389 13.7129 10.4367C13.6279 10.2344 13.5841 10.0172 13.584 9.79779C13.5839 9.57838 13.6275 9.36115 13.7124 9.15881C13.7972 8.95647 13.9216 8.77307 14.0781 8.61935Z" fill="#001D37"/>
<path d="M2.39713e-07 18C2.39713e-07 21.5601 1.05568 25.0402 3.03355 28.0003C5.01141 30.9603 7.82263 33.2674 11.1117 34.6298C14.4008 35.9922 18.02 36.3487 21.5116 35.6541C25.0033 34.9596 28.2106 33.2453 30.7279 30.7279C33.2453 28.2106 34.9596 25.0033 35.6541 21.5116C36.3487 18.02 35.9922 14.4008 34.6298 11.1117C33.2674 7.82263 30.9603 5.01141 28.0003 3.03355C25.0402 1.05568 21.5601 2.39713e-07 18 2.39713e-07C15.6361 -0.000385567 13.2953 0.464935 11.1112 1.36938C8.92721 2.27383 6.94275 3.59969 5.27122 5.27122C3.59969 6.94275 2.27383 8.92721 1.36938 11.1112C0.464935 13.2953 -0.000385567 15.6361 2.39713e-07 18ZM2.76961 18C2.76775 14.9874 3.65972 12.042 5.33261 9.53652C7.00549 7.03108 9.38409 5.07827 12.1673 3.92527C14.9506 2.77227 18.0133 2.47092 20.9679 3.05936C23.9224 3.6478 26.636 5.09958 28.7651 7.23094C30.1791 8.64463 31.3008 10.323 32.0661 12.1702C32.8314 14.0174 33.2254 15.9972 33.2256 17.9967C33.2258 19.9961 32.8321 21.976 32.0671 23.8233C31.3022 25.6707 30.1808 27.3492 28.7671 28.7632C27.3534 30.1771 25.675 31.2988 23.8279 32.0641C21.9807 32.8295 20.0008 33.2235 18.0014 33.2236C16.0019 33.2238 14.022 32.8302 12.1747 32.0652C10.3274 31.3002 8.64881 30.1788 7.23485 28.7651C5.8138 27.3564 4.68692 25.6792 3.91969 23.8312C3.15247 21.9831 2.7602 20.001 2.76569 18H2.76961Z" fill="#001D37"/>
</svg>
