<svg width="20" height="20" viewBox="0 0 20 20" fill="none" xmlns="http://www.w3.org/2000/svg">
<path d="M10 0C8.02219 0 6.08879 0.58649 4.4443 1.6853C2.79981 2.78412 1.51808 4.3459 0.761208 6.17316C0.00433146 8.00042 -0.1937 10.0111 0.192152 11.9509C0.578004 13.8907 1.53041 15.6725 2.92893 17.0711C4.32746 18.4696 6.10929 19.422 8.0491 19.8078C9.98891 20.1937 11.9996 19.9957 13.8268 19.2388C15.6541 18.4819 17.2159 17.2002 18.3147 15.5557C19.4135 13.9112 20 11.9778 20 10C19.9985 7.3483 18.9444 4.80565 17.0694 2.93062C15.1943 1.05559 12.6517 0.00152938 10 0ZM15.1453 7.58322L9.27073 13.4789C9.07739 13.6738 8.81591 13.7859 8.54147 13.7916C8.40481 13.7934 8.2693 13.7664 8.14368 13.7126C8.01807 13.6587 7.90514 13.5791 7.8122 13.4789L4.85377 10.5205C4.66792 10.3223 4.56652 10.0595 4.57103 9.78785C4.57554 9.51617 4.68559 9.25692 4.87791 9.06498C5.07022 8.87304 5.32969 8.76349 5.60137 8.75951C5.87305 8.75553 6.13561 8.85745 6.33346 9.04368L8.54628 11.2565L13.6916 6.11122C13.7877 6.01239 13.9026 5.93383 14.0296 5.88019C14.1566 5.82655 14.2931 5.79891 14.4309 5.79891C14.5688 5.79891 14.7052 5.82655 14.8322 5.88019C14.9592 5.93383 15.0742 6.01239 15.1703 6.11122C15.3624 6.31073 15.4679 6.57802 15.464 6.85494C15.46 7.13187 15.3468 7.39602 15.1491 7.58995L15.1453 7.58322Z" fill="#54A5FE"/>
</svg>
