<svg width="20" height="20" viewBox="0 0 20 20" fill="none" xmlns="http://www.w3.org/2000/svg">
<path d="M10 0C4.48649 0 0 4.48649 0 10C0 15.5135 4.48649 20 10 20C15.5135 20 20 15.5135 20 10C20 4.48649 15.5135 0 10 0ZM14.973 7.86486L9.21622 13.3243C9.05405 13.4595 8.86486 13.5405 8.64865 13.5405C8.43243 13.5405 8.21622 13.4595 8.08108 13.2973L5.05405 10.1892C4.72973 9.86486 4.75676 9.35135 5.08108 9.05405C5.40541 8.72973 5.91892 8.75676 6.21622 9.08108L8.67567 11.6216L13.8649 6.7027C14.1892 6.40541 14.7027 6.40541 15 6.72973C15.2973 7.02703 15.2973 7.54054 14.973 7.86486Z" fill="#F1AB86"/>
</svg>
