<svg width="14" height="14" viewBox="0 0 14 14" fill="none" xmlns="http://www.w3.org/2000/svg">
<path d="M5.03603 14C4.78687 14 4.55328 13.8988 4.38198 13.7131L0.301985 9.15687C-0.0873273 8.76874 -0.1029 8.11061 0.27084 7.68874C0.629008 7.26686 1.23634 7.24999 1.62565 7.65499L4.61557 9.96687C4.78687 10.1356 5.0516 10.1019 5.19175 9.89937L12.2772 0.415598C12.5887 -0.0400284 13.196 -0.141279 13.6165 0.213097C14.0369 0.550598 14.1304 1.20872 13.8034 1.66435L5.79908 13.5781C5.62778 13.8144 5.37862 13.9662 5.11389 13.9831C5.08275 14 5.06717 14 5.03603 14Z" fill="#54A5FE"/>
</svg>
